<svg width="24" height="48" viewBox="0 0 24 48" fill="none" xmlns="http://www.w3.org/2000/svg">
<path d="M16 17V16H13V13H16V15H18V17H17V19H15V21H13V18H15V17H16ZM21 21H17V19H19V17H21V21ZM3 3H11V11H3V3ZM5 5V9H9V5H5ZM13 3H21V11H13V3ZM15 5V9H19V5H15ZM3 13H11V21H3V13ZM5 15V19H9V15H5ZM18 13H21V15H18V13ZM6 6H8V8H6V6ZM6 16H8V18H6V16ZM16 6H18V8H16V6Z" fill="#303030"/>
<path d="M16 41V40H13V37H16V39H18V41H17V43H15V45H13V42H15V41H16ZM21 45H17V43H19V41H21V45ZM3 27H11V35H3V27ZM5 29V33H9V29H5ZM13 27H21V35H13V27ZM15 29V33H19V29H15ZM3 37H11V45H3V37ZM5 39V43H9V39H5ZM18 37H21V39H18V37ZM6 30H8V32H6V30ZM6 40H8V42H6V40ZM16 30H18V32H16V30Z" fill="#003366"/>
</svg>
